<svg width="35" height="35" viewBox="0 0 35 35" fill="none" xmlns="http://www.w3.org/2000/svg">
<rect width="35" height="35" rx="17.5" fill="#B71B34"/>
<path d="M24.4311 10.9057C24.5428 10.7917 24.6761 10.7012 24.8232 10.6394C24.9703 10.5776 25.1282 10.5458 25.2878 10.5458C25.4473 10.5458 25.6053 10.5776 25.7524 10.6394C25.8995 10.7012 26.0328 10.7917 26.1444 10.9057C26.6124 11.3786 26.619 12.1428 26.1608 12.6239L16.4848 24.0623C16.3749 24.183 16.2416 24.2799 16.093 24.3473C15.9444 24.4146 15.7836 24.4509 15.6205 24.454C15.4573 24.4571 15.2953 24.4268 15.1442 24.3651C14.9932 24.3034 14.8563 24.2115 14.742 24.0951L8.85427 18.1288C8.6272 17.8972 8.5 17.5858 8.5 17.2615C8.5 16.9371 8.6272 16.6257 8.85427 16.3942C8.96594 16.2802 9.09923 16.1897 9.24633 16.1279C9.39342 16.0661 9.55137 16.0343 9.71092 16.0343C9.87047 16.0343 10.0284 16.0661 10.1755 16.1279C10.3226 16.1897 10.4559 16.2802 10.5676 16.3942L15.5619 21.4556L24.3984 10.9417C24.4086 10.9291 24.4195 10.917 24.4311 10.9057Z" fill="white"/>
</svg>
