<svg width="246" height="40" viewBox="0 0 246 40" fill="none" xmlns="http://www.w3.org/2000/svg">
<path fill-rule="evenodd" clip-rule="evenodd" d="M0 0H40V9.39597H0V0ZM12.7711 15.302H40V24.698H12.7711V15.302ZM0 30.604H40V40H0V30.604Z" fill="#B71B34"/>
<path d="M66.495 7.72C67.1483 7.72 67.8017 7.74333 68.455 7.79C69.1083 7.81333 69.75 7.895 70.38 8.035C71.01 8.175 71.6167 8.385 72.2 8.665C72.8067 8.92167 73.3667 9.28333 73.88 9.75C74.6967 10.4967 75.28 11.395 75.63 12.445C75.98 13.4717 76.1433 14.5217 76.12 15.595C76.0967 17.0417 75.84 18.2667 75.35 19.27C74.8833 20.2733 74.2417 21.125 73.425 21.825C72.6783 22.4317 71.815 22.8633 70.835 23.12L76.33 32.5H70.66L65.655 23.61H61.7V32.5H56.625V7.72H66.495ZM66.53 19.34C67.16 19.34 67.755 19.2817 68.315 19.165C68.875 19.0483 69.3533 18.8617 69.75 18.605C70.17 18.325 70.4967 17.9633 70.73 17.52C70.9867 17.0533 71.1267 16.47 71.15 15.77C71.1733 15.0233 71.0683 14.4167 70.835 13.95C70.6017 13.4833 70.275 13.1217 69.855 12.865C69.4583 12.6083 68.98 12.445 68.42 12.375C67.8833 12.2817 67.2883 12.235 66.635 12.235H61.7V19.34H66.53ZM90.9149 32.78C88.9782 32.78 87.3215 32.5 85.9449 31.94C84.5915 31.38 83.4832 30.5867 82.6199 29.56C81.7799 28.5333 81.1615 27.3083 80.7649 25.885C80.3915 24.4383 80.2049 22.8167 80.2049 21.02V7.72H85.2799V21.37C85.2799 22.28 85.3732 23.155 85.5599 23.995C85.7465 24.8117 86.0615 25.535 86.5049 26.165C86.9482 26.795 87.5316 27.3083 88.2549 27.705C88.9782 28.0783 89.8882 28.265 90.9849 28.265C92.0582 28.265 92.9566 28.0783 93.6799 27.705C94.4032 27.3083 94.9749 26.795 95.3949 26.165C95.8382 25.5117 96.1415 24.7767 96.3049 23.96C96.4916 23.12 96.5849 22.2567 96.5849 21.37V7.72H101.625V21.02C101.625 22.77 101.427 24.38 101.03 25.85C100.657 27.2967 100.038 28.5333 99.1749 29.56C98.3349 30.5867 97.2266 31.38 95.8499 31.94C94.4966 32.5 92.8516 32.78 90.9149 32.78ZM106.698 32.5V7.72H115.833C117.023 7.72 118.19 7.825 119.333 8.035C120.477 8.22166 121.573 8.595 122.623 9.155C124.49 10.1117 125.89 11.5233 126.823 13.39C127.78 15.2567 128.258 17.5083 128.258 20.145C128.258 24.135 127.22 27.1917 125.143 29.315C123.09 31.4383 120.068 32.5 116.078 32.5H106.698ZM116.113 28.02C116.44 28.02 116.79 27.9967 117.163 27.95C117.537 27.9033 117.91 27.845 118.283 27.775C118.657 27.6817 119.007 27.5767 119.333 27.46C119.66 27.3433 119.94 27.215 120.173 27.075C121.13 26.4217 121.842 25.5 122.308 24.31C122.798 23.0967 123.043 21.7083 123.043 20.145C123.043 18.9083 122.903 17.7883 122.623 16.785C122.343 15.7817 121.912 14.93 121.328 14.23C120.675 13.46 119.835 12.935 118.808 12.655C117.805 12.375 116.813 12.235 115.833 12.235H111.773V28.02H116.113ZM130.937 12.235V7.72H150.362V11.71L137.027 28.02H150.117V32.5H130.657V28.475L143.992 12.235H130.937ZM163.625 7.72C165.119 7.72 166.472 7.88333 167.685 8.21C168.899 8.51333 169.925 9.015 170.765 9.715C171.629 10.3917 172.282 11.29 172.725 12.41C173.192 13.5067 173.414 14.86 173.39 16.47C173.367 17.87 173.122 19.1183 172.655 20.215C172.189 21.2883 171.535 22.1983 170.695 22.945C169.879 23.6683 168.887 24.2283 167.72 24.625C166.577 24.9983 165.329 25.185 163.975 25.185H159.18V32.5H154.105V7.72H163.625ZM163.695 20.705C164.325 20.705 164.92 20.6233 165.48 20.46C166.064 20.2967 166.565 20.04 166.985 19.69C167.405 19.34 167.744 18.9083 168 18.395C168.257 17.8817 168.397 17.275 168.42 16.575C168.467 14.9883 168.035 13.8683 167.125 13.215C166.239 12.5617 165.084 12.235 163.66 12.235H159.18V20.705H163.695ZM180.294 27.775L178.509 32.5H172.979L182.569 7.72H188.309L197.759 32.5H192.194L190.479 27.775H180.294ZM181.764 23.295H188.974L185.404 13.075L181.764 23.295ZM210.255 7.72C210.908 7.72 211.561 7.74333 212.215 7.79C212.868 7.81333 213.51 7.895 214.14 8.035C214.77 8.175 215.376 8.385 215.96 8.665C216.566 8.92167 217.126 9.28333 217.64 9.75C218.456 10.4967 219.04 11.395 219.39 12.445C219.74 13.4717 219.903 14.5217 219.88 15.595C219.856 17.0417 219.6 18.2667 219.11 19.27C218.643 20.2733 218.001 21.125 217.185 21.825C216.438 22.4317 215.575 22.8633 214.595 23.12L220.09 32.5H214.42L209.415 23.61H205.46V32.5H200.385V7.72H210.255ZM210.29 19.34C210.92 19.34 211.515 19.2817 212.075 19.165C212.635 19.0483 213.113 18.8617 213.51 18.605C213.93 18.325 214.256 17.9633 214.49 17.52C214.746 17.0533 214.886 16.47 214.91 15.77C214.933 15.0233 214.828 14.4167 214.595 13.95C214.361 13.4833 214.035 13.1217 213.615 12.865C213.218 12.6083 212.74 12.445 212.18 12.375C211.643 12.2817 211.048 12.235 210.395 12.235H205.46V19.34H210.29ZM229.215 22.42V32.5H224.14V7.72H229.215V17.94H231.84L239.05 7.72H244.93L236.18 19.48L245.035 32.5H239.12L232.33 22.42H229.215Z" fill="#242424"/>
</svg>
