<svg width="25" height="24" viewBox="0 0 25 24" fill="none" xmlns="http://www.w3.org/2000/svg">
<path d="M12.1377 0.0273781C11.1436 0.0928268 9.66145 0.420073 8.71499 0.783016C5.16728 2.15744 2.40529 5.19189 1.42908 8.79158C0.631434 11.7308 0.923109 14.6939 2.26838 17.3832C3.2327 19.311 4.82203 21.0603 6.6316 22.1848C10.9174 24.8444 16.4116 24.5588 20.382 21.4768C20.6618 21.2626 21.1677 20.7985 21.513 20.4534C23.3285 18.6327 24.4714 16.3658 24.8821 13.7597C25.025 12.8613 25.025 11.1358 24.8821 10.2493C24.4595 7.60755 23.3285 5.37039 21.4832 3.52592C19.001 1.04481 15.6616 -0.204668 12.1377 0.0273781ZM14.1318 1.5327C18.3938 2.05034 21.8582 4.93604 23.0844 8.98792C23.4178 10.0946 23.5011 10.6955 23.5011 12.0045C23.5011 13.3135 23.4178 13.9144 23.0844 15.0152C22.7094 16.2646 22.1975 17.2642 21.388 18.3412C21.0011 18.8588 20.5844 19.311 20.5427 19.2574C20.5308 19.2455 20.4475 19.0194 20.3582 18.7577C19.6855 16.8299 18.2093 15.2413 16.2688 14.3547L15.8759 14.1762L16.1378 13.968C16.739 13.492 17.3819 12.5162 17.6438 11.6773C17.8462 11.0406 17.8819 9.81496 17.7093 9.14857C17.3581 7.73249 16.4533 6.59606 15.1735 5.95942C14.4235 5.59053 13.858 5.45963 13.0008 5.45963C12.1437 5.45963 11.5782 5.59053 10.8281 5.95942C9.62573 6.55441 8.76857 7.57185 8.35784 8.88082C8.19117 9.41631 8.13164 10.523 8.23879 11.1358C8.33998 11.7189 8.60785 12.3913 8.94714 12.9089C9.22096 13.3313 9.98884 14.1465 10.1079 14.1465C10.1436 14.1465 9.84598 14.3071 9.45906 14.4975C7.64949 15.396 6.28635 16.9191 5.64348 18.7577C5.55419 19.0194 5.47086 19.2455 5.45895 19.2574C5.41728 19.311 5.0006 18.8588 4.61369 18.3412C2.48863 15.509 1.90528 11.9867 3.01841 8.66068C4.2863 4.88249 7.64949 2.10389 11.6198 1.56245C12.3341 1.46725 13.4651 1.45535 14.1318 1.5327ZM13.6616 6.97091C15.4533 7.3517 16.6735 9.14857 16.3104 10.874C15.8938 12.8435 13.9175 14.0691 12.0782 13.5039C9.56621 12.7364 8.81619 9.64241 10.7031 7.85744C11.5425 7.06016 12.5901 6.74481 13.6616 6.97091ZM13.6973 15.1639C15.1556 15.3246 16.495 15.9612 17.5307 16.9965C18.0129 17.4784 18.5426 18.2341 18.8046 18.8172C18.9712 19.1979 19.251 20.1618 19.251 20.3641C19.251 20.6378 17.5486 21.5839 16.3164 21.9884C15.0604 22.4049 14.4175 22.5061 12.9711 22.5001C11.852 22.5001 11.6436 22.4823 10.971 22.3395C10.0424 22.1431 9.16739 21.8456 8.35784 21.4411C7.57806 21.0543 6.75065 20.5188 6.75065 20.3939C6.75065 20.1261 7.02447 19.2277 7.25067 18.7517C7.59591 18.0258 7.92926 17.5439 8.47094 16.9965C9.4412 16.0147 10.8639 15.3186 12.227 15.1639C12.8699 15.0925 13.0604 15.0925 13.6973 15.1639Z" fill="white"/>
</svg>
